<?xml version="1.0" encoding="utf-8"?>
<!-- Generator: Adobe Illustrator 22.0.1, SVG Export Plug-In . SVG Version: 6.00 Build 0)  -->
<svg version="1.1" id="India" xmlns="http://www.w3.org/2000/svg" xmlns:xlink="http://www.w3.org/1999/xlink" x="0px" y="0px"
	 viewBox="0 0 1140 1149.4" style="enable-background:new 0 0 1140 1149.4;" xml:space="preserve">
<style type="text/css">
	.st0{fill:#008080;stroke:#FFFFFF;}
</style>
<g id="Jammu_and_Kashmir">
	<path id="Baramulla" class="st0" d="M242.5,0.6l13,7.5v15l-13,7.5l-13-7.5v-15L242.5,0.6z"/>
	<path id="Ladakh" class="st0" d="M268.5,0.6l13,7.5v15l-13,7.5l-13-7.5v-15L268.5,0.6z"/>
	<path id="Srinagar" class="st0" d="M255.5,23.1l13,7.5v15l-13,7.5l-13-7.5v-15L255.5,23.1z"/>
	<path id="Anantnag" class="st0" d="M229.5,23.1l13,7.5v15l-13,7.5l-13-7.5v-15L229.5,23.1z"/>
	<path id="Jammu" class="st0" d="M242.5,45.6l13,7.5v15l-13,7.5l-13-7.5v-15L242.5,45.6z"/>
	<path id="Udhampur" class="st0" d="M268.5,45.6l13,7.5v15l-13,7.5l-13-7.5v-15L268.5,45.6z"/>
</g>
<g id="Himachal_Pradesh">
	<path id="Kangra" class="st0" d="M282.9,100.2l13,7.5v15l-13,7.5l-13-7.5v-15L282.9,100.2z"/>
	<path id="Mandi" class="st0" d="M308.9,100.2l13,7.5v15l-13,7.5l-13-7.5v-15L308.9,100.2z"/>
	<path id="Hamirpur" class="st0" d="M295.9,122.7l13,7.5v15l-13,7.5l-13-7.5v-15L295.9,122.7z"/>
	<path id="Shimla" class="st0" d="M321.9,122.7l13,7.5v15l-13,7.5l-13-7.5v-15L321.9,122.7z"/>
</g>
<g id="Punjab">
	<path id="Gurdaspur" class="st0" d="M197.5,88.2l13,7.5v15l-13,7.5l-13-7.5v-15L197.5,88.2z"/>
	<path id="Amritsar" class="st0" d="M184.5,110.7l13,7.5v15l-13,7.5l-13-7.5v-15L184.5,110.7z"/>
	<path id="Hoshiarpur" class="st0" d="M210.5,110.7l13,7.5v15l-13,7.5l-13-7.5v-15L210.5,110.7z"/>
	<path id="Khadoor_Sahib" class="st0" d="M171.5,133.2l13,7.5v15l-13,7.5l-13-7.5v-15L171.5,133.2z"/>
	<path id="Jalandhar" class="st0" d="M197.5,133.2l13,7.5v15l-13,7.5l-13-7.5v-15L197.5,133.2z"/>
	<path id="Anandpur_Sahib" class="st0" d="M223.5,133.2l13,7.5v15l-13,7.5l-13-7.5v-15L223.5,133.2z"/>
	<path id="Firozpur" class="st0" d="M158.5,155.7l13,7.5v15l-13,7.5l-13-7.5v-15L158.5,155.7z"/>
	<path id="Faridkot" class="st0" d="M184.5,155.7l13,7.5v15l-13,7.5l-13-7.5v-15L184.5,155.7z"/>
	<path id="Ludhiana" class="st0" d="M210.5,155.7l13,7.5v15l-13,7.5l-13-7.5v-15L210.5,155.7z"/>
	<path id="Fatehgarh_Sahib" class="st0" d="M236.5,155.7l13,7.5v15l-13,7.5l-13-7.5v-15L236.5,155.7z"/>
	<path id="Bathinda" class="st0" d="M171.5,178.2l13,7.5v15l-13,7.5l-13-7.5v-15L171.5,178.2z"/>
	<path id="Sangrur" class="st0" d="M197.5,178.2l13,7.5v15l-13,7.5l-13-7.5v-15L197.5,178.2z"/>
	<path id="Patiala" class="st0" d="M223.5,178.2l13,7.5v15l-13,7.5l-13-7.5v-15L223.5,178.2z"/>
</g>
<g id="Uttarakhand">
	<path id="Tehri_Garhwal" class="st0" d="M325.6,174.4l13,7.5v15l-13,7.5l-13-7.5v-15L325.6,174.4z"/>
	<path id="Garhwal" class="st0" d="M351.6,174.4l13,7.5v15l-13,7.5l-13-7.5v-15L351.6,174.4z"/>
	<path id="Almora" class="st0" d="M364.6,196.9l13,7.5v15l-13,7.5l-13-7.5v-15L364.6,196.9z"/>
	<path id="Nainital-Udhamsingh_Nagar" class="st0" d="M338.6,196.9l13,7.5v15l-13,7.5l-13-7.5v-15L338.6,196.9z"/>
	<path id="Hardwar" class="st0" d="M312.6,196.9l13,7.5v15l-13,7.5l-13-7.5v-15L312.6,196.9z"/>
</g>
<g id="Haryana">
	<path id="Ambala" class="st0" d="M210.5,255.1l13,7.5v15l-13,7.5l-13-7.5v-15L210.5,255.1z"/>
	<path id="Kurukshetra" class="st0" d="M197.5,277.6l13,7.5v15l-13,7.5l-13-7.5v-15L197.5,277.6z"/>
	<path id="Karnal" class="st0" d="M210.5,300.1l13,7.5v15l-13,7.5l-13-7.5v-15L210.5,300.1z"/>
	<path id="Sonipat" class="st0" d="M197.5,322.6l13,7.5v15l-13,7.5l-13-7.5v-15L197.5,322.6z"/>
	<path id="Rohtak" class="st0" d="M184.5,345.1l13,7.5v15l-13,7.5l-13-7.5v-15L184.5,345.1z"/>
	<path id="Hisar" class="st0" d="M184.5,300.1l13,7.5v15l-13,7.5l-13-7.5v-15L184.5,300.1z"/>
	<path id="Sirsa" class="st0" d="M171.5,277.6l13,7.5v15l-13,7.5l-13-7.5v-15L171.5,277.6z"/>
	<path id="Bhiwani_Mahendragarh" class="st0" d="M171.5,322.6l13,7.5v15l-13,7.5l-13-7.5v-15L171.5,322.6z"/>
	<path id="Gurgaon" class="st0" d="M210.5,345.1l13,7.5v15l-13,7.5l-13-7.5v-15L210.5,345.1z"/>
	<path id="Faridabad" class="st0" d="M223.5,367.6l13,7.5v15l-13,7.5l-13-7.5v-15L223.5,367.6z"/>
</g>
<g id="NCT_OF_Delhi">
	<path id="North_West_Delhi" class="st0" d="M269.9,276.9l13,7.5v15l-13,7.5l-13-7.5v-15L269.9,276.9z"/>
	<path id="North_East_Delhi" class="st0" d="M295.9,276.9l13,7.5v15l-13,7.5l-13-7.5v-15L295.9,276.9z"/>
	<path id="West_Delhi" class="st0" d="M282.9,299.4l13,7.5v15l-13,7.5l-13-7.5v-15L282.9,299.4z"/>
	<path id="New_Delhi" class="st0" d="M295.9,321.9l13,7.5v15l-13,7.5l-13-7.5v-15L295.9,321.9z"/>
	<path id="Chandni_Chowk" class="st0" d="M308.9,299.4l13,7.5v15l-13,7.5l-13-7.5v-15L308.9,299.4z"/>
	<path id="South_Delhi" class="st0" d="M269.9,321.9l13,7.5v15l-13,7.5l-13-7.5v-15L269.9,321.9z"/>
	<path id="East_Delhi" class="st0" d="M321.9,321.9l13,7.5v15l-13,7.5l-13-7.5v-15L321.9,321.9z"/>
</g>
<g id="Uttar_Pradesh">
	<path id="Baghpat" class="st0" d="M349.3,244.8l13,7.5v15l-13,7.5l-13-7.5v-15L349.3,244.8z"/>
	<path id="Kairana" class="st0" d="M375.3,244.8l13,7.5v15l-13,7.5l-13-7.5v-15L375.3,244.8z"/>
	<path id="Saharanpur" class="st0" d="M401.3,244.8l13,7.5v15l-13,7.5l-13-7.5v-15L401.3,244.8z"/>
	<path id="Muzaffarnagar" class="st0" d="M362.3,267.4l13,7.5v15l-13,7.5l-13-7.5v-15L362.3,267.4z"/>
	<path id="Bijnor" class="st0" d="M388.3,267.4l13,7.5v15l-13,7.5l-13-7.5v-15L388.3,267.4z"/>
	<path id="Nagina" class="st0" d="M414.3,267.4l13,7.5v15l-13,7.5l-13-7.5v-15L414.3,267.4z"/>
	<path id="Ghaziabad" class="st0" d="M375.3,289.9l13,7.5v15l-13,7.5l-13-7.5v-15L375.3,289.9z"/>
	<path id="Meerut" class="st0" d="M401.3,289.9l13,7.5v15l-13,7.5l-13-7.5v-15L401.3,289.9z"/>
	<path id="Amroha" class="st0" d="M427.3,289.9l13,7.5v15l-13,7.5l-13-7.5v-15L427.3,289.9z"/>
	<path id="Moradabad" class="st0" d="M453.3,289.9l13,7.5v15l-13,7.5l-13-7.5v-15L453.3,289.9z"/>
	<path id="Gautam_Buddha_Nagar" class="st0" d="M388.3,312.4l13,7.5v15l-13,7.5l-13-7.5v-15L388.3,312.4z"/>
	<path id="Aligarh" class="st0" d="M414.3,312.4l13,7.5v15l-13,7.5l-13-7.5v-15L414.3,312.4z"/>
	<path id="Bulandshahr" class="st0" d="M440.3,312.4l13,7.5v15l-13,7.5l-13-7.5v-15L440.3,312.4z"/>
	<path id="Sambhal" class="st0" d="M466.3,312.4l13,7.5v15l-13,7.5l-13-7.5v-15L466.3,312.4z"/>
	<path id="Rampur" class="st0" d="M492.3,312.4l13,7.5v15l-13,7.5l-13-7.5v-15L492.3,312.4z"/>
	<path id="Mathura" class="st0" d="M375.3,334.9l13,7.5v15l-13,7.5l-13-7.5v-15L375.3,334.9z"/>
	<path id="Hathras" class="st0" d="M401.3,334.9l13,7.5v15l-13,7.5l-13-7.5v-15L401.3,334.9z"/>
	<path id="Agra" class="st0" d="M427.3,334.9l13,7.5v15l-13,7.5l-13-7.5v-15L427.3,334.9z"/>
	<path id="Etah" class="st0" d="M453.3,334.9l13,7.5v15l-13,7.5l-13-7.5v-15L453.3,334.9z"/>
	<path id="Badaun" class="st0" d="M479.3,334.9l13,7.5v15l-13,7.5l-13-7.5v-15L479.3,334.9z"/>
	<path id="Bareilly" class="st0" d="M505.3,334.9l13,7.5v15l-13,7.5l-13-7.5v-15L505.3,334.9z"/>
	<path id="Pilibhit" class="st0" d="M531.3,334.9l13,7.5v15l-13,7.5l-13-7.5v-15L531.3,334.9z"/>
	<path id="Aonla" class="st0" d="M362.3,357.4l13,7.5v15l-13,7.5l-13-7.5v-15L362.3,357.4z"/>
	<path id="Shahjahanpur" class="st0" d="M388.3,357.4l13,7.5v15l-13,7.5l-13-7.5v-15L388.3,357.4z"/>
	<path id="Kheri" class="st0" d="M414.3,357.4l13,7.5v15l-13,7.5l-13-7.5v-15L414.3,357.4z"/>
	<path id="Bahraich" class="st0" d="M440.3,357.4l13,7.5v15l-13,7.5l-13-7.5v-15L440.3,357.4z"/>
	<path id="Shrawasti" class="st0" d="M466.3,357.4l13,7.5v15l-13,7.5l-13-7.5v-15L466.3,357.4z"/>
	<path id="Domariyaganj" class="st0" d="M492.3,357.4l13,7.5v15l-13,7.5l-13-7.5v-15L492.3,357.4z"/>
	<path id="Gorakhpur" class="st0" d="M518.3,357.4l13,7.5v15l-13,7.5l-13-7.5v-15L518.3,357.4z"/>
	<path id="Maharajganj" class="st0" d="M544.3,357.4l13,7.5v15l-13,7.5l-13-7.5v-15L544.3,357.4z"/>
	<path id="Kushi_Nagar" class="st0" d="M570.3,357.4l13,7.5v15l-13,7.5l-13-7.5v-15L570.3,357.4z"/>
	<path id="Dhaurahra" class="st0" d="M375.3,379.9l13,7.5v15l-13,7.5l-13-7.5v-15L375.3,379.9z"/>
	<path id="Sitapur" class="st0" d="M401.3,379.9l13,7.5v15l-13,7.5l-13-7.5v-15L401.3,379.9z"/>
	<path id="Barabanki" class="st0" d="M427.3,379.9l13,7.5v15l-13,7.5l-13-7.5v-15L427.3,379.9z"/>
	<path id="Kaiserganj" class="st0" d="M453.3,379.9l13,7.5v15l-13,7.5l-13-7.5v-15L453.3,379.9z"/>
	<path id="Gonda" class="st0" d="M479.3,379.9l13,7.5v15l-13,7.5l-13-7.5v-15L479.3,379.9z"/>
	<path id="Basti" class="st0" d="M505.3,379.9l13,7.5v15l-13,7.5l-13-7.5v-15L505.3,379.9z"/>
	<path id="Sant_Kabir_Nagar" class="st0" d="M531.3,379.9l13,7.5v15l-13,7.5l-13-7.5v-15L531.3,379.9z"/>
	<path id="Bansgaon" class="st0" d="M557.3,379.9l13,7.5v15l-13,7.5l-13-7.5v-15L557.3,379.9z"/>
	<path id="Deoria" class="st0" d="M583.3,379.9l13,7.5v15l-13,7.5l-13-7.5v-15L583.3,379.9z"/>
	<path id="Fatehpur_Sikri" class="st0" d="M388.3,402.5l13,7.5v15l-13,7.5l-13-7.5v-15L388.3,402.5z"/>
	<path id="Firozabad" class="st0" d="M414.3,402.5l13,7.5v15l-13,7.5l-13-7.5v-15L414.3,402.5z"/>
	<path id="Mainpuri" class="st0" d="M440.3,402.5l13,7.5v15l-13,7.5l-13-7.5v-15L440.3,402.5z"/>
	<path id="Farrukhabad" class="st0" d="M466.3,402.5l13,7.5v15l-13,7.5l-13-7.5v-15L466.3,402.5z"/>
	<path id="Hardoi" class="st0" d="M492.3,402.5l13,7.5v15l-13,7.5l-13-7.5v-15L492.3,402.5z"/>
	<path id="Faizabad" class="st0" d="M518.3,402.5l13,7.5v15l-13,7.5l-13-7.5v-15L518.3,402.5z"/>
	<path id="Ambedkar_Nagar" class="st0" d="M544.3,402.5l13,7.5v15l-13,7.5l-13-7.5v-15L544.3,402.5z"/>
	<path id="Ghosi" class="st0" d="M570.3,402.5l13,7.5v15l-13,7.5l-13-7.5v-15L570.3,402.5z"/>
	<path id="Salempur" class="st0" d="M596.3,402.5l13,7.5v15l-13,7.5l-13-7.5v-15L596.3,402.5z"/>
	<path id="Kannauj" class="st0" d="M401.3,425l13,7.5v15l-13,7.5l-13-7.5v-15L401.3,425z"/>
	<path id="Misrikh" class="st0" d="M427.3,425l13,7.5v15l-13,7.5l-13-7.5v-15L427.3,425z"/>
	<path id="Lucknow" class="st0" d="M453.3,425l13,7.5v15l-13,7.5l-13-7.5v-15L453.3,425z"/>
	<path id="Mohanlalganj" class="st0" d="M479.3,425l13,7.5v15l-13,7.5l-13-7.5v-15L479.3,425z"/>
	<path id="Amethi" class="st0" d="M505.3,425l13,7.5v15l-13,7.5l-13-7.5v-15L505.3,425z"/>
	<path id="Sultanpur" class="st0" d="M531.3,425l13,7.5v15l-13,7.5l-13-7.5v-15L531.3,425z"/>
	<path id="Lalganj" class="st0" d="M557.3,425l13,7.5v15l-13,7.5l-13-7.5v-15L557.3,425z"/>
	<path id="Azamgarh" class="st0" d="M583.3,425l13,7.5v15l-13,7.5l-13-7.5v-15L583.3,425z"/>
	<path id="Ballia" class="st0" d="M609.3,425l13,7.5v15l-13,7.5l-13-7.5v-15L609.3,425z"/>
	<path id="Kanpur_Urban" class="st0" d="M440.3,447.5l13,7.5v15l-13,7.5l-13-7.5v-15L440.3,447.5z"/>
	<path id="Unnao" class="st0" d="M466.3,447.5l13,7.5v15l-13,7.5l-13-7.5v-15L466.3,447.5z"/>
	<path id="Rae_Bareli" class="st0" d="M492.3,447.5l13,7.5v15l-13,7.5l-13-7.5v-15L492.3,447.5z"/>
	<path id="Pratapgarh" class="st0" d="M518.3,447.5l13,7.5v15l-13,7.5l-13-7.5v-15L518.3,447.5z"/>
	<path id="Jaunpur" class="st0" d="M544.3,447.5l13,7.5v15l-13,7.5l-13-7.5v-15L544.3,447.5z"/>
	<path id="Machhlishahr" class="st0" d="M570.3,447.5l13,7.5v15l-13,7.5l-13-7.5v-15L570.3,447.5z"/>
	<path id="Ghazipur" class="st0" d="M596.3,447.5l13,7.5v15l-13,7.5l-13-7.5v-15L596.3,447.5z"/>
	<path id="Etawah" class="st0" d="M427.3,470l13,7.5v15l-13,7.5l-13-7.5v-15L427.3,470z"/>
	<path id="Akbarpur" class="st0" d="M453.3,470l13,7.5v15l-13,7.5l-13-7.5v-15L453.3,470z"/>
	<path id="Fatehpur" class="st0" d="M479.3,470l13,7.5v15l-13,7.5l-13-7.5v-15L479.3,470z"/>
	<path id="Kaushambi" class="st0" d="M505.3,470l13,7.5v15l-13,7.5l-13-7.5v-15L505.3,470z"/>
	<path id="Phulpur" class="st0" d="M531.3,470l13,7.5v15l-13,7.5l-13-7.5v-15L531.3,470z"/>
	<path id="Bhadohi" class="st0" d="M557.3,470l13,7.5v15l-13,7.5l-13-7.5v-15L557.3,470z"/>
	<path id="Varanasi" class="st0" d="M583.3,470l13,7.5v15l-13,7.5l-13-7.5v-15L583.3,470z"/>
	<path id="Chandauli" class="st0" d="M609.3,470l13,7.5v15l-13,7.5l-13-7.5v-15L609.3,470z"/>
	<path id="Jhansi" class="st0" d="M466.3,492.5l13,7.5v15l-13,7.5l-13-7.5v-15L466.3,492.5z"/>
	<path id="Jalaun" class="st0" d="M492.3,492.5l13,7.5v15l-13,7.5l-13-7.5v-15L492.3,492.5z"/>
	<path id="Hamirpur_2" class="st0" d="M518.3,492.5l13,7.5v15l-13,7.5l-13-7.5v-15L518.3,492.5z"/>
	<path id="Banda" class="st0" d="M544.3,492.5l13,7.5v15l-13,7.5l-13-7.5v-15L544.3,492.5z"/>
	<path id="Allahabad" class="st0" d="M570.3,492.5l13,7.5v15l-13,7.5l-13-7.5v-15L570.3,492.5z"/>
	<path id="Mirzapur" class="st0" d="M596.3,492.5l13,7.5v15l-13,7.5l-13-7.5v-15L596.3,492.5z"/>
	<path id="Robertsganj" class="st0" d="M622.3,492.5l13,7.5v15l-13,7.5l-13-7.5v-15L622.3,492.5z"/>
</g>
<g id="Bihar">
	<path id="Valmiki_Nagar" class="st0" d="M641,365.9l13,7.5v15l-13,7.5l-13-7.5v-15L641,365.9z"/>
	<path id="Maharajganj_2" class="st0" d="M654,388.4l13,7.5v15l-13,7.5l-13-7.5v-15L654,388.4z"/>
	<path id="Siwan" class="st0" d="M680,388.4l13,7.5v15l-13,7.5l-13-7.5v-15L680,388.4z"/>
	<path id="Gopalganj" class="st0" d="M706,388.4l13,7.5v15l-13,7.5l-13-7.5v-15L706,388.4z"/>
	<path id="Paschim_Champaran" class="st0" d="M732,388.4l13,7.5v15l-13,7.5l-13-7.5v-15L732,388.4z"/>
	<path id="Purvi_Champaran" class="st0" d="M758,388.4l13,7.5v15l-13,7.5l-13-7.5v-15L758,388.4z"/>
	<path id="Sitamarhi" class="st0" d="M784,388.4l13,7.5v15l-13,7.5l-13-7.5v-15L784,388.4z"/>
	<path id="Sheohar" class="st0" d="M810,388.4l13,7.5v15l-13,7.5l-13-7.5v-15L810,388.4z"/>
	<path id="Vaishali" class="st0" d="M836,388.4l13,7.5v15l-13,7.5l-13-7.5v-15L836,388.4z"/>
	<path id="Muzaffarpur" class="st0" d="M667,410.9l13,7.5v15l-13,7.5l-13-7.5v-15L667,410.9z"/>
	<path id="Madhubani" class="st0" d="M693,410.9l13,7.5v15l-13,7.5l-13-7.5v-15L693,410.9z"/>
	<path id="Jhanjharpur" class="st0" d="M719,410.9l13,7.5v15l-13,7.5l-13-7.5v-15L719,410.9z"/>
	<path id="Supaul" class="st0" d="M745,410.9l13,7.5v15l-13,7.5l-13-7.5v-15L745,410.9z"/>
	<path id="Araria" class="st0" d="M771,410.9l13,7.5v15l-13,7.5l-13-7.5v-15L771,410.9z"/>
	<path id="Kishanganj" class="st0" d="M797,410.9l13,7.5v15l-13,7.5l-13-7.5v-15L797,410.9z"/>
	<path id="Saran" class="st0" d="M823,410.9l13,7.5v15l-13,7.5l-13-7.5v-15L823,410.9z"/>
	<path id="Hajipur" class="st0" d="M680,433.5l13,7.5v15l-13,7.5l-13-7.5v-15L680,433.5z"/>
	<path id="Ujiarpur" class="st0" d="M706,433.5l13,7.5v15l-13,7.5l-13-7.5v-15L706,433.5z"/>
	<path id="Samastipur" class="st0" d="M732,433.5l13,7.5v15l-13,7.5l-13-7.5v-15L732,433.5z"/>
	<path id="Darbhanga" class="st0" d="M758,433.5l13,7.5v15l-13,7.5l-13-7.5v-15L758,433.5z"/>
	<path id="Arrah" class="st0" d="M784,433.5l13,7.5v15l-13,7.5l-13-7.5v-15L784,433.5z"/>
	<path id="Pataliputra" class="st0" d="M810,433.5l13,7.5v15l-13,7.5l-13-7.5v-15L810,433.5z"/>
	<path id="Patna_Sahib" class="st0" d="M667,456l13,7.5v15l-13,7.5l-13-7.5v-15L667,456z"/>
	<path id="Begusarai" class="st0" d="M693,456l13,7.5v15l-13,7.5l-13-7.5v-15L693,456z"/>
	<path id="Khagaria" class="st0" d="M719,456l13,7.5v15l-13,7.5l-13-7.5v-15L719,456z"/>
	<path id="Madhepura" class="st0" d="M745,456l13,7.5v15l-13,7.5l-13-7.5v-15L745,456z"/>
	<path id="Purnia" class="st0" d="M771,456l13,7.5v15l-13,7.5l-13-7.5v-15L771,456z"/>
	<path id="Katihar" class="st0" d="M797,456l13,7.5v15l-13,7.5l-13-7.5v-15L797,456z"/>
	<path id="Buxar" class="st0" d="M680,478.5l13,7.5v15l-13,7.5l-13-7.5v-15L680,478.5z"/>
	<path id="Karakat" class="st0" d="M706,478.5l13,7.5v15l-13,7.5l-13-7.5v-15L706,478.5z"/>
	<path id="Jahanabad" class="st0" d="M732,478.5l13,7.5v15l-13,7.5l-13-7.5v-15L732,478.5z"/>
	<path id="Nalanda" class="st0" d="M758,478.5l13,7.5v15l-13,7.5l-13-7.5v-15L758,478.5z"/>
	<path id="Munger" class="st0" d="M784,478.5l13,7.5v15l-13,7.5l-13-7.5v-15L784,478.5z"/>
	<path id="Bhagalpur" class="st0" d="M810,478.5l13,7.5v15l-13,7.5l-13-7.5v-15L810,478.5z"/>
	<path id="Sasaram" class="st0" d="M667,501l13,7.5v15l-13,7.5l-13-7.5v-15L667,501z"/>
	<path id="Aurangabad" class="st0" d="M693,501l13,7.5v15l-13,7.5l-13-7.5v-15L693,501z"/>
	<path id="Gaya" class="st0" d="M719,501l13,7.5v15l-13,7.5l-13-7.5v-15L719,501z"/>
	<path id="Nawada" class="st0" d="M745,501l13,7.5v15l-13,7.5l-13-7.5v-15L745,501z"/>
	<path id="Jamui" class="st0" d="M771,501l13,7.5v15l-13,7.5l-13-7.5v-15L771,501z"/>
	<path id="Banka" class="st0" d="M797,501l13,7.5v15l-13,7.5l-13-7.5v-15L797,501z"/>
</g>
<path id="Chandigarh" class="st0" d="M173.6,223.9l13,7.5v15l-13,7.5l-13-7.5v-15L173.6,223.9z"/>
<g id="Rajasthan">
	<path id="Ganganagar" class="st0" d="M104.5,218.2l13,7.5v15l-13,7.5l-13-7.5v-15L104.5,218.2z"/>
	<path id="Churu" class="st0" d="M91.5,240.8l13,7.5v15l-13,7.5l-13-7.5v-15L91.5,240.8z"/>
	<path id="Jhunjhunu" class="st0" d="M78.5,263.3l13,7.5v15l-13,7.5l-13-7.5v-15L78.5,263.3z"/>
	<path id="Bikaner" class="st0" d="M65.5,285.8l13,7.5v15l-13,7.5l-13-7.5v-15L65.5,285.8z"/>
	<path id="Sikar" class="st0" d="M91.5,285.8l13,7.5v15l-13,7.5l-13-7.5v-15L91.5,285.8z"/>
	<path id="Jaipur" class="st0" d="M52.5,308.3l13,7.5v15l-13,7.5l-13-7.5v-15L52.5,308.3z"/>
	<path id="Jaipur_Rural" class="st0" d="M78.5,308.3l13,7.5v15l-13,7.5l-13-7.5v-15L78.5,308.3z"/>
	<path id="Alwar" class="st0" d="M104.5,308.3l13,7.5v15l-13,7.5l-13-7.5v-15L104.5,308.3z"/>
	<path id="Jodhpur" class="st0" d="M13.5,330.8l13,7.5v15l-13,7.5l-13-7.5v-15L13.5,330.8z"/>
	<path id="Nagaur" class="st0" d="M39.5,330.8l13,7.5v15l-13,7.5l-13-7.5v-15L39.5,330.8z"/>
	<path id="Ajmer" class="st0" d="M65.5,330.8l13,7.5v15l-13,7.5l-13-7.5v-15L65.5,330.8z"/>
	<path id="Dausa" class="st0" d="M91.5,330.8l13,7.5v15l-13,7.5l-13-7.5v-15L91.5,330.8z"/>
	<path id="Bharatpur" class="st0" d="M117.5,330.8l13,7.5v15l-13,7.5l-13-7.5v-15L117.5,330.8z"/>
	<path id="Pali" class="st0" d="M26.5,353.3l13,7.5v15l-13,7.5l-13-7.5v-15L26.5,353.3z"/>
	<path id="Rajsamand" class="st0" d="M52.5,353.3l13,7.5v15l-13,7.5l-13-7.5v-15L52.5,353.3z"/>
	<path id="Bhilwara" class="st0" d="M78.5,353.3l13,7.5v15l-13,7.5l-13-7.5v-15L78.5,353.3z"/>
	<path id="Tonk-Sawai_Madhopur" class="st0" d="M104.5,353.3l13,7.5v15l-13,7.5l-13-7.5v-15L104.5,353.3z"/>
	<path id="Karauli_Dholpur" class="st0" d="M130.5,353.3l13,7.5v15l-13,7.5l-13-7.5v-15L130.5,353.3z"/>
	<path id="Barmer" class="st0" d="M39.5,375.9l13,7.5v15l-13,7.5l-13-7.5v-15L39.5,375.9z"/>
	<path id="Jalore" class="st0" d="M65.5,375.9l13,7.5v15l-13,7.5l-13-7.5v-15L65.5,375.9z"/>
	<path id="Chittorgarh" class="st0" d="M91.5,375.9l13,7.5v15l-13,7.5l-13-7.5v-15L91.5,375.9z"/>
	<path id="Kota" class="st0" d="M117.5,375.9l13,7.5v15l-13,7.5l-13-7.5v-15L117.5,375.9z"/>
	<path id="Udaipur" class="st0" d="M52.5,397.4l13,7.5v15l-13,7.5l-13-7.5v-15L52.5,397.4z"/>
	<path id="Banswara" class="st0" d="M78.5,398.4l13,7.5v15l-13,7.5l-13-7.5v-15L78.5,398.4z"/>
	<path id="Jhalawar_Baran" class="st0" d="M104.5,398.4l13,7.5v15l-13,7.5l-13-7.5v-15L104.5,398.4z"/>
</g>
<g id="Madhya_Pradesh">
	<path id="Morena" class="st0" d="M329.8,400.8l13,7.5v15l-13,7.5l-13-7.5v-15L329.8,400.8z"/>
	<path id="Gwalior" class="st0" d="M316.8,423.3l13,7.5v15l-13,7.5l-13-7.5v-15L316.8,423.3z"/>
	<path id="Bhind" class="st0" d="M342.8,423.3l13,7.5v15l-13,7.5l-13-7.5v-15L342.8,423.3z"/>
	<path id="Guna" class="st0" d="M303.8,445.9l13,7.5v15l-13,7.5l-13-7.5v-15L303.8,445.9z"/>
	<path id="Tikamgarh" class="st0" d="M355.8,445.9l13,7.5v15l-13,7.5l-13-7.5v-15L355.8,445.9z"/>
	<path id="Khajuraho" class="st0" d="M368.8,468.4l13,7.5v15l-13,7.5l-13-7.5v-15L368.8,468.4z"/>
	<path id="Damoh" class="st0" d="M342.8,468.4l13,7.5v15l-13,7.5l-13-7.5v-15L342.8,468.4z"/>
	<path id="Sagar" class="st0" d="M316.8,468.4l13,7.5v15l-13,7.5l-13-7.5v-15L316.8,468.4z"/>
	<path id="Rajgarh" class="st0" d="M290.8,468.4l13,7.5v15l-13,7.5l-13-7.5v-15L290.8,468.4z"/>
	<path id="Dewas" class="st0" d="M264.8,468.4l13,7.5v15l-13,7.5l-13-7.5v-15L264.8,468.4z"/>
	<path id="Ujjain" class="st0" d="M238.8,468.4l13,7.5v15l-13,7.5l-13-7.5v-15L238.8,468.4z"/>
	<path id="Bhopal" class="st0" d="M225.8,490.9l13,7.5v15l-13,7.5l-13-7.5v-15L225.8,490.9z"/>
	<path id="Dhar" class="st0" d="M251.8,490.9l13,7.5v15l-13,7.5l-13-7.5v-15L251.8,490.9z"/>
	<path id="Indore" class="st0" d="M277.8,490.9l13,7.5v15l-13,7.5l-13-7.5v-15L277.8,490.9z"/>
	<path id="Vidisha" class="st0" d="M303.8,490.9l13,7.5v15l-13,7.5l-13-7.5v-15L303.8,490.9z"/>
	<path id="Jabalpur" class="st0" d="M329.8,490.9l13,7.5v15l-13,7.5l-13-7.5v-15L329.8,490.9z"/>
	<path id="Satna" class="st0" d="M355.8,490.9l13,7.5v15l-13,7.5l-13-7.5v-15L355.8,490.9z"/>
	<path id="Mandsaur" class="st0" d="M225.8,445.9l13,7.5v15l-13,7.5l-13-7.5v-15L225.8,445.9z"/>
	<path id="Rewa" class="st0" d="M342.8,513.4l13,7.5v15l-13,7.5l-13-7.5v-15L342.8,513.4z"/>
	<path id="Sidhi" class="st0" d="M316.8,513.4l13,7.5v15l-13,7.5l-13-7.5v-15L316.8,513.4z"/>
	<path id="Shahdol" class="st0" d="M290.8,513.4l13,7.5v15l-13,7.5l-13-7.5v-15L290.8,513.4z"/>
	<path id="Mandla" class="st0" d="M264.8,513.4l13,7.5v15l-13,7.5l-13-7.5v-15L264.8,513.4z"/>
	<path id="Hoshangabad" class="st0" d="M238.8,513.4l13,7.5v15l-13,7.5l-13-7.5v-15L238.8,513.4z"/>
	<path id="Betul" class="st0" d="M277.8,535.9l13,7.5v15l-13,7.5l-13-7.5v-15L277.8,535.9z"/>
	<path id="Chhindwara" class="st0" d="M303.8,535.9l13,7.5v15l-13,7.5l-13-7.5v-15L303.8,535.9z"/>
	<path id="Balaghat" class="st0" d="M329.8,535.9l13,7.5v15l-13,7.5l-13-7.5v-15L329.8,535.9z"/>
	<path id="Khandwa" class="st0" d="M251.8,535.9l13,7.5v15l-13,7.5l-13-7.5v-15L251.8,535.9z"/>
	<path id="Khargone" class="st0" d="M225.8,535.9l13,7.5v15l-13,7.5l-13-7.5v-15L225.8,535.9z"/>
	<path id="Ratlam" class="st0" d="M199.8,535.9l13,7.5v15l-13,7.5l-13-7.5v-15L199.8,535.9z"/>
</g>
<g id="Gujarat">
	<path id="Kachchh" class="st0" d="M58.1,470.3l13,7.5v15l-13,7.5l-13-7.5v-15L58.1,470.3z"/>
	<path id="Patan" class="st0" d="M84.1,470.3l13,7.5v15l-13,7.5l-13-7.5v-15L84.1,470.3z"/>
	<path id="Banaskantha" class="st0" d="M110.1,470.3l13,7.5v15l-13,7.5l-13-7.5v-15L110.1,470.3z"/>
	<path id="Mahesana" class="st0" d="M136.1,470.3l13,7.5v15l-13,7.5l-13-7.5v-15L136.1,470.3z"/>
	<path id="Sabarkantha" class="st0" d="M162.1,470.3l13,7.5v15l-13,7.5l-13-7.5v-15L162.1,470.3z"/>
	<path id="Ahmedabad_West" class="st0" d="M123.1,492.8l13,7.5v15l-13,7.5l-13-7.5v-15L123.1,492.8z"/>
	<path id="Ahmedabad_East" class="st0" d="M149.1,492.8l13,7.5v15l-13,7.5l-13-7.5v-15L149.1,492.8z"/>
	<path id="Gandhinagar" class="st0" d="M97.1,492.8l13,7.5v15l-13,7.5l-13-7.5v-15L97.1,492.8z"/>
	<path id="Rajkot" class="st0" d="M32.1,515.3l13,7.5v15l-13,7.5l-13-7.5v-15L32.1,515.3z"/>
	<path id="Surendranagar" class="st0" d="M58.1,515.3l13,7.5v15l-13,7.5l-13-7.5v-15L58.1,515.3z"/>
	<path id="Kheda" class="st0" d="M84.1,515.3l13,7.5v15l-13,7.5l-13-7.5v-15L84.1,515.3z"/>
	<path id="Panchmahal" class="st0" d="M110.1,515.3l13,7.5v15l-13,7.5l-13-7.5v-15L110.1,515.3z"/>
	<path id="Dahod" class="st0" d="M136.1,515.3l13,7.5v15l-13,7.5l-13-7.5v-15L136.1,515.3z"/>
	<path id="Jamnagar" class="st0" d="M19.1,537.8l13,7.5v15l-13,7.5l-13-7.5v-15L19.1,537.8z"/>
	<path id="Porbandar" class="st0" d="M45.1,537.8l13,7.5v15l-13,7.5l-13-7.5v-15L45.1,537.8z"/>
	<path id="Bhavnagar" class="st0" d="M71.1,537.8l13,7.5v15l-13,7.5l-13-7.5v-15L71.1,537.8z"/>
	<path id="Anand" class="st0" d="M97.1,537.8l13,7.5v15l-13,7.5l-13-7.5v-15L97.1,537.8z"/>
	<path id="Vadodara" class="st0" d="M123.1,537.8l13,7.5v15l-13,7.5l-13-7.5v-15L123.1,537.8z"/>
	<path id="Chhota_Udaipur" class="st0" d="M149.1,537.8l13,7.5v15l-13,7.5l-13-7.5v-15L149.1,537.8z"/>
	<path id="Amreli" class="st0" d="M58.1,560.4l13,7.5v15l-13,7.5l-13-7.5v-15L58.1,560.4z"/>
	<path id="Junagadh" class="st0" d="M32.1,560.4l13,7.5v15l-13,7.5l-13-7.5v-15L32.1,560.4z"/>
	<path id="Surat" class="st0" d="M110.1,560.4l13,7.5v15l-13,7.5l-13-7.5v-15L110.1,560.4z"/>
	<path id="Bharuch" class="st0" d="M136.1,560.4l13,7.5v15l-13,7.5l-13-7.5v-15L136.1,560.4z"/>
	<path id="Bardoli" class="st0" d="M149.1,582.9l13,7.5v15l-13,7.5l-13-7.5v-15L149.1,582.9z"/>
	<path id="Valsad" class="st0" d="M123.1,582.9l13,7.5v15l-13,7.5l-13-7.5v-15L123.1,582.9z"/>
	<path id="Navsari" class="st0" d="M97.1,582.9l13,7.5v15l-13,7.5l-13-7.5v-15L97.1,582.9z"/>
</g>
<path id="Daman_And_Diu" class="st0" d="M32.1,605.4l13,7.5v15l-13,7.5l-13-7.5v-15L32.1,605.4z"/>
<path id="Dadra_And_Nagar_Haveli" class="st0" d="M125.1,630.9l13,7.5v15l-13,7.5l-13-7.5v-15L125.1,630.9z"/>
<g id="Chhattisgarh">
	<path id="Sarguja" class="st0" d="M432,536.7l13,7.5v15l-13,7.5l-13-7.5v-15L432,536.7z"/>
	<path id="Korba" class="st0" d="M419,559.2l13,7.5v15l-13,7.5l-13-7.5v-15L419,559.2z"/>
	<path id="Raigarh" class="st0" d="M445,559.2l13,7.5v15l-13,7.5l-13-7.5v-15L445,559.2z"/>
	<path id="Janjgir" class="st0" d="M458,581.7l13,7.5v15l-13,7.5l-13-7.5v-15L458,581.7z"/>
	<path id="Bilaspur" class="st0" d="M432,581.7l13,7.5v15l-13,7.5l-13-7.5v-15L432,581.7z"/>
	<path id="Rajnandgaon" class="st0" d="M406,581.7l13,7.5v15l-13,7.5l-13-7.5v-15L406,581.7z"/>
	<path id="Durg" class="st0" d="M393,604.3l13,7.5v15l-13,7.5l-13-7.5v-15L393,604.3z"/>
	<path id="Raipur" class="st0" d="M419,604.3l13,7.5v15l-13,7.5l-13-7.5v-15L419,604.3z"/>
	<path id="Mahasamund" class="st0" d="M445,604.3l13,7.5v15l-13,7.5l-13-7.5v-15L445,604.3z"/>
	<path id="Kanker" class="st0" d="M406,626.8l13,7.5v15l-13,7.5l-13-7.5v-15L406,626.8z"/>
	<path id="Bastar" class="st0" d="M432,626.8l13,7.5v15l-13,7.5l-13-7.5v-15L432,626.8z"/>
</g>
<g id="Maharashtra">
	<path id="Bhiwandi" class="st0" d="M123.1,679.9l13,7.5v15l-13,7.5l-13-7.5v-15L123.1,679.9z"/>
	<path id="Shirur" class="st0" d="M149.1,679.9l13,7.5v15l-13,7.5l-13-7.5v-15L149.1,679.9z"/>
	<path id="Shirdi" class="st0" d="M175.1,679.9l13,7.5v15l-13,7.5l-13-7.5v-15L175.1,679.9z"/>
	<path id="Aurangabad_2" class="st0" d="M201.1,679.9l13,7.5v15l-13,7.5l-13-7.5v-15L201.1,679.9z"/>
	<path id="Jalna" class="st0" d="M227.1,679.9l13,7.5v15l-13,7.5l-13-7.5v-15L227.1,679.9z"/>
	<path id="Buldhana" class="st0" d="M253.1,679.9l13,7.5v15l-13,7.5l-13-7.5v-15L253.1,679.9z"/>
	<path id="Akola" class="st0" d="M279.1,679.9l13,7.5v15l-13,7.5l-13-7.5v-15L279.1,679.9z"/>
	<path id="Yavatmal_Washim" class="st0" d="M305.1,679.9l13,7.5v15l-13,7.5l-13-7.5v-15L305.1,679.9z"/>
	<path id="Hingoli" class="st0" d="M331.1,679.9l13,7.5v15l-13,7.5l-13-7.5v-15L331.1,679.9z"/>
	<path id="Chandrapur" class="st0" d="M357.1,679.9l13,7.5v15l-13,7.5l-13-7.5v-15L357.1,679.9z"/>
	<path id="Raver" class="st0" d="M188.1,657.4l13,7.5v15l-13,7.5l-13-7.5v-15L188.1,657.4z"/>
	<path id="Amravati" class="st0" d="M214.1,657.4l13,7.5v15l-13,7.5l-13-7.5v-15L214.1,657.4z"/>
	<path id="Wardha" class="st0" d="M240.1,657.4l13,7.5v15l-13,7.5l-13-7.5v-15L240.1,657.4z"/>
	<path id="Nagpur" class="st0" d="M266.1,657.4l13,7.5v15l-13,7.5l-13-7.5v-15L266.1,657.4z"/>
	<path id="Ramtek" class="st0" d="M292.1,657.4l13,7.5v15l-13,7.5l-13-7.5v-15L292.1,657.4z"/>
	<path id="Bhandara_Gondiya" class="st0" d="M318.1,657.4l13,7.5v15l-13,7.5l-13-7.5v-15L318.1,657.4z"/>
	<path id="Gadchiroli_Chimur" class="st0" d="M344.1,657.4l13,7.5v15l-13,7.5l-13-7.5v-15L344.1,657.4z"/>
	<path id="Palghar" class="st0" d="M201.1,634.9l13,7.5v15l-13,7.5l-13-7.5v-15L201.1,634.9z"/>
	<path id="Nashik" class="st0" d="M227.1,634.9l13,7.5v15l-13,7.5l-13-7.5v-15L227.1,634.9z"/>
	<path id="Dindori" class="st0" d="M253.1,634.9l13,7.5v15l-13,7.5l-13-7.5v-15L253.1,634.9z"/>
	<path id="Nandurbar" class="st0" d="M279.1,634.9l13,7.5v15l-13,7.5l-13-7.5v-15L279.1,634.9z"/>
	<path id="Dhule" class="st0" d="M305.1,634.9l13,7.5v15l-13,7.5l-13-7.5v-15L305.1,634.9z"/>
	<path id="Jalgaon" class="st0" d="M331.1,634.9l13,7.5v15l-13,7.5l-13-7.5v-15L331.1,634.9z"/>
	<path id="Mumbai_South" class="st0" d="M136.1,702.5l13,7.5v15l-13,7.5l-13-7.5v-15L136.1,702.5z"/>
	<path id="Mumbai_South_Central" class="st0" d="M162.1,702.5l13,7.5v15l-13,7.5l-13-7.5v-15L162.1,702.5z"/>
	<path id="Mumbai_North_Central" class="st0" d="M188.1,702.5l13,7.5v15l-13,7.5l-13-7.5v-15L188.1,702.5z"/>
	<path id="Mumbai_North_East" class="st0" d="M214.1,702.5l13,7.5v15l-13,7.5l-13-7.5v-15L214.1,702.5z"/>
	<path id="Mumbai_North_West" class="st0" d="M240.1,702.5l13,7.5v15l-13,7.5l-13-7.5v-15L240.1,702.5z"/>
	<path id="Mumbai_North" class="st0" d="M266.1,702.5l13,7.5v15l-13,7.5l-13-7.5v-15L266.1,702.5z"/>
	<path id="Thane" class="st0" d="M292.1,702.5l13,7.5v15l-13,7.5l-13-7.5v-15L292.1,702.5z"/>
	<path id="Kalyan" class="st0" d="M318.1,702.5l13,7.5v15l-13,7.5l-13-7.5v-15L318.1,702.5z"/>
	<path id="Maval" class="st0" d="M149.1,725l13,7.5v15l-13,7.5l-13-7.5v-15L149.1,725z"/>
	<path id="Pune" class="st0" d="M175.1,725l13,7.5v15l-13,7.5l-13-7.5v-15L175.1,725z"/>
	<path id="Baramati" class="st0" d="M201.1,725l13,7.5v15l-13,7.5l-13-7.5v-15L201.1,725z"/>
	<path id="Ahmednagar" class="st0" d="M227.1,725l13,7.5v15l-13,7.5l-13-7.5v-15L227.1,725z"/>
	<path id="Beed" class="st0" d="M253.1,725l13,7.5v15l-13,7.5l-13-7.5v-15L253.1,725z"/>
	<path id="Parbhani" class="st0" d="M279.1,725l13,7.5v15l-13,7.5l-13-7.5v-15L279.1,725z"/>
	<path id="Nanded" class="st0" d="M305.1,725l13,7.5v15l-13,7.5l-13-7.5v-15L305.1,725z"/>
	<path id="Raigad" class="st0" d="M162.1,747.5l13,7.5v15l-13,7.5l-13-7.5v-15L162.1,747.5z"/>
	<path id="Satara" class="st0" d="M188.1,747.5l13,7.5v15l-13,7.5l-13-7.5v-15L188.1,747.5z"/>
	<path id="Madha" class="st0" d="M214.1,747.5l13,7.5v15l-13,7.5l-13-7.5v-15L214.1,747.5z"/>
	<path id="Solapur" class="st0" d="M240.1,747.5l13,7.5v15l-13,7.5l-13-7.5v-15L240.1,747.5z"/>
	<path id="Osmanabad" class="st0" d="M266.1,747.5l13,7.5v15l-13,7.5l-13-7.5v-15L266.1,747.5z"/>
	<path id="Latur" class="st0" d="M292.1,747.5l13,7.5v15l-13,7.5l-13-7.5v-15L292.1,747.5z"/>
	<path id="Ratnagiri_Sindhudurg" class="st0" d="M175.1,770l13,7.5v15l-13,7.5l-13-7.5v-15L175.1,770z"/>
	<path id="Kolhapur" class="st0" d="M201.1,770l13,7.5v15l-13,7.5l-13-7.5v-15L201.1,770z"/>
	<path id="Hatkanangle" class="st0" d="M227.1,770l13,7.5v15l-13,7.5l-13-7.5v-15L227.1,770z"/>
	<path id="Sangli" class="st0" d="M253.1,770l13,7.5v15l-13,7.5l-13-7.5v-15L253.1,770z"/>
</g>
<g id="West_Bengal">
	<path id="Cooch_Behar" class="st0" d="M880.2,349.7l13,7.5v15l-13,7.5l-13-7.5v-15L880.2,349.7z"/>
	<path id="Alipurduars" class="st0" d="M906.2,349.7l13,7.5v15l-13,7.5l-13-7.5v-15L906.2,349.7z"/>
	<path id="Darjeeling" class="st0" d="M893.2,372.3l13,7.5v15l-13,7.5l-13-7.5v-15L893.2,372.3z"/>
	<path id="Jalpaiguri" class="st0" d="M919.2,372.3l13,7.5v15l-13,7.5l-13-7.5v-15L919.2,372.3z"/>
	<path id="Raiganj" class="st0" d="M880.2,394.8l13,7.5v15l-13,7.5l-13-7.5v-15L880.2,394.8z"/>
	<path id="Balurghat" class="st0" d="M893.2,417.3l13,7.5v15l-13,7.5l-13-7.5v-15L893.2,417.3z"/>
	<path id="Maldaha_Dakshin" class="st0" d="M880.2,439.8l13,7.5v15l-13,7.5l-13-7.5v-15L880.2,439.8z"/>
	<path id="Maldaha_Uttar" class="st0" d="M906.2,439.8l13,7.5v15l-13,7.5l-13-7.5v-15L906.2,439.8z"/>
	<path id="Jangipur" class="st0" d="M867.2,462.3l13,7.5v15l-13,7.5l-13-7.5v-15L867.2,462.3z"/>
	<path id="Baharampur" class="st0" d="M893.2,462.3l13,7.5v15l-13,7.5l-13-7.5v-15L893.2,462.3z"/>
	<path id="Murshidabad" class="st0" d="M919.2,462.3l13,7.5v15l-13,7.5l-13-7.5v-15L919.2,462.3z"/>
	<path id="Asansol" class="st0" d="M854.2,484.8l13,7.5v15l-13,7.5l-13-7.5v-15L854.2,484.8z"/>
	<path id="Birbhum" class="st0" d="M880.2,484.8l13,7.5v15l-13,7.5l-13-7.5v-15L880.2,484.8z"/>
	<path id="Bolpur" class="st0" d="M906.2,484.8l13,7.5v15l-13,7.5l-13-7.5v-15L906.2,484.8z"/>
	<path id="Krishnanagar" class="st0" d="M932.2,484.8l13,7.5v15l-13,7.5l-13-7.5v-15L932.2,484.8z"/>
	<path id="Purulia" class="st0" d="M841.2,507.4l13,7.5v15l-13,7.5l-13-7.5v-15L841.2,507.4z"/>
	<path id="Burdwan_Durgapur" class="st0" d="M867.2,507.4l13,7.5v15l-13,7.5l-13-7.5v-15L867.2,507.4z"/>
	<path id="Bardhaman_Purba" class="st0" d="M893.2,507.4l13,7.5v15l-13,7.5l-13-7.5v-15L893.2,507.4z"/>
	<path id="Hooghly" class="st0" d="M919.2,507.4l13,7.5v15l-13,7.5l-13-7.5v-15L919.2,507.4z"/>
	<path id="Ranaghat" class="st0" d="M945.2,507.4l13,7.5v15l-13,7.5l-13-7.5v-15L945.2,507.4z"/>
	<path id="Bankura" class="st0" d="M828.2,529.9l13,7.5v15l-13,7.5l-13-7.5v-15L828.2,529.9z"/>
	<path id="Bishnupur" class="st0" d="M854.2,529.9l13,7.5v15l-13,7.5l-13-7.5v-15L854.2,529.9z"/>
	<path id="Arambagh" class="st0" d="M880.2,529.9l13,7.5v15l-13,7.5l-13-7.5v-15L880.2,529.9z"/>
	<path id="Srerampur" class="st0" d="M906.2,529.9l13,7.5v15l-13,7.5l-13-7.5v-15L906.2,529.9z"/>
	<path id="Barrackpore" class="st0" d="M932.2,529.9l13,7.5v15l-13,7.5l-13-7.5v-15L932.2,529.9z"/>
	<path id="Bangaon" class="st0" d="M958.2,529.9l13,7.5v15l-13,7.5l-13-7.5v-15L958.2,529.9z"/>
	<path id="Ghatal" class="st0" d="M815.2,552.4l13,7.5v15l-13,7.5l-13-7.5v-15L815.2,552.4z"/>
	<path id="Uluberia" class="st0" d="M841.2,552.4l13,7.5v15l-13,7.5l-13-7.5v-15L841.2,552.4z"/>
	<path id="Howrah" class="st0" d="M867.2,552.4l13,7.5v15l-13,7.5l-13-7.5v-15L867.2,552.4z"/>
	<path id="Kolkata_Dakshin" class="st0" d="M893.2,552.4l13,7.5v15l-13,7.5l-13-7.5v-15L893.2,552.4z"/>
	<path id="Kolkata_Uttar" class="st0" d="M919.2,552.4l13,7.5v15l-13,7.5l-13-7.5v-15L919.2,552.4z"/>
	<path id="Dum_Dum" class="st0" d="M945.2,552.4l13,7.5v15l-13,7.5l-13-7.5v-15L945.2,552.4z"/>
	<path id="Barasat" class="st0" d="M971.2,552.4l13,7.5v15l-13,7.5l-13-7.5v-15L971.2,552.4z"/>
	<path id="Jhargram" class="st0" d="M828.2,574.9l13,7.5v15l-13,7.5l-13-7.5v-15L828.2,574.9z"/>
	<path id="Medinipur" class="st0" d="M854.2,574.9l13,7.5v15l-13,7.5l-13-7.5v-15L854.2,574.9z"/>
	<path id="Kanthi" class="st0" d="M880.2,574.9l13,7.5v15l-13,7.5l-13-7.5v-15L880.2,574.9z"/>
	<path id="Tamluk" class="st0" d="M906.2,574.9l13,7.5v15l-13,7.5l-13-7.5v-15L906.2,574.9z"/>
	<path id="Diamond_Harbour" class="st0" d="M932.2,574.9l13,7.5v15l-13,7.5l-13-7.5v-15L932.2,574.9z"/>
	<path id="Jadavpur" class="st0" d="M958.2,574.9l13,7.5v15l-13,7.5l-13-7.5v-15L958.2,574.9z"/>
	<path id="Basirhat" class="st0" d="M984.2,574.9l13,7.5v15l-13,7.5l-13-7.5v-15L984.2,574.9z"/>
	<path id="Jaynagar" class="st0" d="M971.2,597.4l13,7.5v15l-13,7.5l-13-7.5v-15L971.2,597.4z"/>
	<path id="Mathurapur" class="st0" d="M945.2,597.4l13,7.5v15l-13,7.5l-13-7.5v-15L945.2,597.4z"/>
</g>
<g id="Odisha">
	<path id="Bargarh" class="st0" d="M542.8,657.3l13,7.5v15l-13,7.5l-13-7.5v-15L542.8,657.3z"/>
	<path id="Sambalpur" class="st0" d="M568.8,657.3l13,7.5v15l-13,7.5l-13-7.5v-15L568.8,657.3z"/>
	<path id="Dhenkanal" class="st0" d="M594.8,657.3l13,7.5v15l-13,7.5l-13-7.5v-15L594.8,657.3z"/>
	<path id="Keonjhar" class="st0" d="M620.8,657.3l13,7.5v15l-13,7.5l-13-7.5v-15L620.8,657.3z"/>
	<path id="Jajpur" class="st0" d="M646.8,657.3l13,7.5v15l-13,7.5l-13-7.5v-15L646.8,657.3z"/>
	<path id="Kendrapara" class="st0" d="M672.8,657.3l13,7.5v15l-13,7.5l-13-7.5v-15L672.8,657.3z"/>
	<path id="Bhadrak" class="st0" d="M698.8,657.3l13,7.5v15l-13,7.5l-13-7.5v-15L698.8,657.3z"/>
	<path id="Balasore" class="st0" d="M724.8,657.3l13,7.5v15l-13,7.5l-13-7.5v-15L724.8,657.3z"/>
	<path id="Mayurbhanj" class="st0" d="M737.8,634.8l13,7.5v15l-13,7.5l-13-7.5v-15L737.8,634.8z"/>
	<path id="Sundargarh" class="st0" d="M711.8,634.8l13,7.5v15l-13,7.5l-13-7.5v-15L711.8,634.8z"/>
	<path id="Bolangir" class="st0" d="M555.8,679.8l13,7.5v15l-13,7.5l-13-7.5v-15L555.8,679.8z"/>
	<path id="Kalahandi" class="st0" d="M581.8,679.8l13,7.5v15l-13,7.5l-13-7.5v-15L581.8,679.8z"/>
	<path id="Kandhamal" class="st0" d="M607.8,679.8l13,7.5v15l-13,7.5l-13-7.5v-15L607.8,679.8z"/>
	<path id="Cuttack" class="st0" d="M633.8,679.8l13,7.5v15l-13,7.5l-13-7.5v-15L633.8,679.8z"/>
	<path id="Bhubaneswar" class="st0" d="M659.8,679.8l13,7.5v15l-13,7.5l-13-7.5v-15L659.8,679.8z"/>
	<path id="Jagatsinghpur" class="st0" d="M685.8,679.8l13,7.5v15l-13,7.5l-13-7.5v-15L685.8,679.8z"/>
	<path id="Nabarangpur" class="st0" d="M568.8,702.3l13,7.5v15l-13,7.5l-13-7.5v-15L568.8,702.3z"/>
	<path id="Koraput" class="st0" d="M594.8,702.3l13,7.5v15l-13,7.5l-13-7.5v-15L594.8,702.3z"/>
	<path id="Berhampur" class="st0" d="M620.8,702.3l13,7.5v15l-13,7.5l-13-7.5v-15L620.8,702.3z"/>
	<path id="Aska" class="st0" d="M646.8,702.3l13,7.5v15l-13,7.5l-13-7.5v-15L646.8,702.3z"/>
	<path id="Puri" class="st0" d="M672.8,702.3l13,7.5v15l-13,7.5l-13-7.5v-15L672.8,702.3z"/>
</g>
<g id="Telengana">
	<path id="Zahirabad" class="st0" d="M410.9,703.6l13,7.5v15l-13,7.5l-13-7.5v-15L410.9,703.6z"/>
	<path id="Nizamabad" class="st0" d="M436.9,703.6l13,7.5v15l-13,7.5l-13-7.5v-15L436.9,703.6z"/>
	<path id="Adilabad" class="st0" d="M462.9,703.6l13,7.5v15l-13,7.5l-13-7.5v-15L462.9,703.6z"/>
	<path id="Peddapalle" class="st0" d="M488.9,703.6l13,7.5v15l-13,7.5l-13-7.5v-15L488.9,703.6z"/>
	<path id="Hyderabad" class="st0" d="M397.9,726.1l13,7.5v15l-13,7.5l-13-7.5v-15L397.9,726.1z"/>
	<path id="Secunderabad" class="st0" d="M423.9,726.1l13,7.5v15l-13,7.5l-13-7.5v-15L423.9,726.1z"/>
	<path id="Malkajgiri" class="st0" d="M449.9,726.1l13,7.5v15l-13,7.5l-13-7.5v-15L449.9,726.1z"/>
	<path id="Medak" class="st0" d="M475.9,726.1l13,7.5v15l-13,7.5l-13-7.5v-15L475.9,726.1z"/>
	<path id="Karimnagar" class="st0" d="M501.9,726.1l13,7.5v15l-13,7.5l-13-7.5v-15L501.9,726.1z"/>
	<path id="Chevella" class="st0" d="M410.9,748.7l13,7.5v15l-13,7.5l-13-7.5v-15L410.9,748.7z"/>
	<path id="Mahbubnagar" class="st0" d="M436.9,748.7l13,7.5v15l-13,7.5l-13-7.5v-15L436.9,748.7z"/>
	<path id="Bhongir" class="st0" d="M462.9,748.7l13,7.5v15l-13,7.5l-13-7.5v-15L462.9,748.7z"/>
	<path id="Warangal" class="st0" d="M488.9,748.7l13,7.5v15l-13,7.5l-13-7.5v-15L488.9,748.7z"/>
	<path id="Mahabubabad" class="st0" d="M514.9,748.7l13,7.5v15l-13,7.5l-13-7.5v-15L514.9,748.7z"/>
	<path id="Nagarkurnool" class="st0" d="M397.9,771.2l13,7.5v15l-13,7.5l-13-7.5v-15L397.9,771.2z"/>
	<path id="Nalgonda" class="st0" d="M423.9,771.2l13,7.5v15l-13,7.5l-13-7.5v-15L423.9,771.2z"/>
	<path id="Khammam" class="st0" d="M449.9,771.2l13,7.5v15l-13,7.5l-13-7.5v-15L449.9,771.2z"/>
</g>
<g id="Andhra_Pradesh">
	<path id="Nandyal" class="st0" d="M478.6,843.7l13,7.5v15l-13,7.5l-13-7.5v-15L478.6,843.7z"/>
	<path id="Ongole" class="st0" d="M504.6,843.7l13,7.5v15l-13,7.5l-13-7.5v-15L504.6,843.7z"/>
	<path id="Bapatla" class="st0" d="M530.6,843.7l13,7.5v15l-13,7.5l-13-7.5v-15L530.6,843.7z"/>
	<path id="Narasaraopet" class="st0" d="M556.6,843.7l13,7.5v15l-13,7.5l-13-7.5v-15L556.6,843.7z"/>
	<path id="Guntur" class="st0" d="M517.9,821.4l13,7.5v15l-13,7.5l-13-7.5v-15L517.9,821.4z"/>
	<path id="Vijayawada" class="st0" d="M543.9,821.4l13,7.5v15l-13,7.5l-13-7.5v-15L543.9,821.4z"/>
	<path id="Eluru" class="st0" d="M569.9,821.4l13,7.5v15l-13,7.5l-13-7.5v-15L569.9,821.4z"/>
	<path id="Rajahmundry" class="st0" d="M595.9,821.4l13,7.5v15l-13,7.5l-13-7.5v-15L595.9,821.4z"/>
	<path id="Kakinada" class="st0" d="M569.9,776.3l13,7.5v15l-13,7.5l-13-7.5v-15L569.9,776.3z"/>
	<path id="Anakapalli" class="st0" d="M595.9,776.3l13,7.5v15l-13,7.5l-13-7.5v-15L595.9,776.3z"/>
	<path id="Visakhapatnam" class="st0" d="M621.9,776.3l13,7.5v15l-13,7.5l-13-7.5v-15L621.9,776.3z"/>
	<path id="Chittoor" class="st0" d="M608.9,798.8l13,7.5v15l-13,7.5l-13-7.5v-15L608.9,798.8z"/>
	<path id="Amalapuram" class="st0" d="M582.9,798.8l13,7.5v15l-13,7.5l-13-7.5v-15L582.9,798.8z"/>
	<path id="Narasapuram" class="st0" d="M556.9,798.8l13,7.5v15l-13,7.5l-13-7.5v-15L556.9,798.8z"/>
	<path id="Machilipatnam" class="st0" d="M530.9,798.8l13,7.5v15l-13,7.5l-13-7.5v-15L530.9,798.8z"/>
	<path id="Kadapa" class="st0" d="M517.6,866.1l13,7.5v15l-13,7.5l-13-7.5v-15L517.6,866.1z"/>
	<path id="Hindupur" class="st0" d="M491.6,866.1l13,7.5v15l-13,7.5l-13-7.5v-15L491.6,866.1z"/>
	<path id="Kurnool" class="st0" d="M465.6,866.1l13,7.5v15l-13,7.5l-13-7.5v-15L465.6,866.1z"/>
	<path id="Nellore" class="st0" d="M530.3,888.3l13,7.5v15l-13,7.5l-13-7.5v-15L530.3,888.3z"/>
	<path id="Rajampet" class="st0" d="M504.3,888.3l13,7.5v15l-13,7.5l-13-7.5v-15L504.3,888.3z"/>
	<path id="Tirupati" class="st0" d="M478.3,888.3l13,7.5v15l-13,7.5l-13-7.5v-15L478.3,888.3z"/>
	<path id="Anantapur" class="st0" d="M452.3,888.3l13,7.5v15l-13,7.5l-13-7.5v-15L452.3,888.3z"/>
	<path id="Srikakulam" class="st0" d="M634.9,753.8l13,7.5v15l-13,7.5l-13-7.5v-15L634.9,753.8z"/>
	<path id="Vizianagaram" class="st0" d="M608.9,753.8l13,7.5v15l-13,7.5l-13-7.5v-15L608.9,753.8z"/>
	<path id="Araku" class="st0" d="M583.2,754l13,7.5v15l-13,7.5l-13-7.5v-15L583.2,754z"/>
</g>
<g id="Karnataka">
	<path id="Bijapur" class="st0" d="M195.4,866.3l13,7.5v15l-13,7.5l-13-7.5v-15L195.4,866.3z"/>
	<path id="Chikkodi" class="st0" d="M221.4,866.3l13,7.5v15l-13,7.5l-13-7.5v-15L221.4,866.3z"/>
	<path id="Belgaum" class="st0" d="M247.4,866.3l13,7.5v15l-13,7.5l-13-7.5v-15L247.4,866.3z"/>
	<path id="Dharwad" class="st0" d="M273.4,866.3l13,7.5v15l-13,7.5l-13-7.5v-15L273.4,866.3z"/>
	<path id="Bagalkot" class="st0" d="M299.4,866.3l13,7.5v15l-13,7.5l-13-7.5v-15L299.4,866.3z"/>
	<path id="Koppal" class="st0" d="M325.4,866.3l13,7.5v15l-13,7.5l-13-7.5v-15L325.4,866.3z"/>
	<path id="Raichur" class="st0" d="M351.4,866.3l13,7.5v15l-13,7.5l-13-7.5v-15L351.4,866.3z"/>
	<path id="Bidar" class="st0" d="M286.9,844.1l13,7.5v15l-13,7.5l-13-7.5v-15L286.9,844.1z"/>
	<path id="Uttara_Kannada" class="st0" d="M208.4,888.8l13,7.5v15l-13,7.5l-13-7.5v-15L208.4,888.8z"/>
	<path id="Shimoga" class="st0" d="M234.4,888.8l13,7.5v15l-13,7.5l-13-7.5v-15L234.4,888.8z"/>
	<path id="Haveri" class="st0" d="M260.4,888.8l13,7.5v15l-13,7.5l-13-7.5v-15L260.4,888.8z"/>
	<path id="Davanagere" class="st0" d="M286.4,888.8l13,7.5v15l-13,7.5l-13-7.5v-15L286.4,888.8z"/>
	<path id="Bellary" class="st0" d="M312.4,888.8l13,7.5v15l-13,7.5l-13-7.5v-15L312.4,888.8z"/>
	<path id="Chitradurga" class="st0" d="M338.4,888.8l13,7.5v15l-13,7.5l-13-7.5v-15L338.4,888.8z"/>
	<path id="Gulbarga" class="st0" d="M260.6,843.9l13,7.5v15l-13,7.5l-13-7.5v-15L260.6,843.9z"/>
	<path id="Tumkur" class="st0" d="M221.4,911.4l13,7.5v15l-13,7.5l-13-7.5v-15L221.4,911.4z"/>
	<path id="Chikballapur" class="st0" d="M247.4,911.4l13,7.5v15l-13,7.5l-13-7.5v-15L247.4,911.4z"/>
	<path id="Bangalore_North" class="st0" d="M273.4,911.4l13,7.5v15l-13,7.5l-13-7.5v-15L273.4,911.4z"/>
	<path id="Bangalore_South" class="st0" d="M299.4,911.4l13,7.5v15l-13,7.5l-13-7.5v-15L299.4,911.4z"/>
	<path id="Bangalore_Central" class="st0" d="M325.4,911.4l13,7.5v15l-13,7.5l-13-7.5v-15L325.4,911.4z"/>
	<path id="Kolar" class="st0" d="M351.4,911.4l13,7.5v15l-13,7.5l-13-7.5v-15L351.4,911.4z"/>
	<path id="Dakshina_Kannada" class="st0" d="M234.4,933.9l13,7.5v15l-13,7.5l-13-7.5v-15L234.4,933.9z"/>
	<path id="Udupi_Chikmagalur" class="st0" d="M260.4,933.9l13,7.5v15l-13,7.5l-13-7.5v-15L260.4,933.9z"/>
	<path id="Hassan" class="st0" d="M286.4,933.9l13,7.5v15l-13,7.5l-13-7.5v-15L286.4,933.9z"/>
	<path id="Mandya" class="st0" d="M312.4,933.9l13,7.5v15l-13,7.5l-13-7.5v-15L312.4,933.9z"/>
	<path id="Bangalore_Rural" class="st0" d="M338.4,933.9l13,7.5v15l-13,7.5l-13-7.5v-15L338.4,933.9z"/>
	<path id="Mysore" class="st0" d="M247.4,956.4l13,7.5v15l-13,7.5l-13-7.5v-15L247.4,956.4z"/>
	<path id="Chamarajanagar" class="st0" d="M273.4,956.4l13,7.5v15l-13,7.5l-13-7.5v-15L273.4,956.4z"/>
</g>
<g id="Kerela">
	<path id="Kasaragod" class="st0" d="M247.9,1006.9l13,7.5v15l-13,7.5l-13-7.5v-15L247.9,1006.9z"/>
	<path id="Kannur" class="st0" d="M273.9,1006.9l13,7.5v15l-13,7.5l-13-7.5v-15L273.9,1006.9z"/>
	<path id="Vatakara" class="st0" d="M299.9,1006.9l13,7.5v15l-13,7.5l-13-7.5v-15L299.9,1006.9z"/>
	<path id="Wayanad" class="st0" d="M325.9,1006.9l13,7.5v15l-13,7.5l-13-7.5v-15L325.9,1006.9z"/>
	<path id="Kozhikode" class="st0" d="M260.9,1029.4l13,7.5v15l-13,7.5l-13-7.5v-15L260.9,1029.4z"/>
	<path id="Malappuram" class="st0" d="M286.9,1029.4l13,7.5v15l-13,7.5l-13-7.5v-15L286.9,1029.4z"/>
	<path id="Ponnani" class="st0" d="M312.9,1029.4l13,7.5v15l-13,7.5l-13-7.5v-15L312.9,1029.4z"/>
	<path id="Palakkad" class="st0" d="M338.9,1029.4l13,7.5v15l-13,7.5l-13-7.5v-15L338.9,1029.4z"/>
	<path id="Alathur" class="st0" d="M273.9,1051.9l13,7.5v15l-13,7.5l-13-7.5v-15L273.9,1051.9z"/>
	<path id="Thrissur" class="st0" d="M299.9,1051.9l13,7.5v15l-13,7.5l-13-7.5v-15L299.9,1051.9z"/>
	<path id="Chalakudy" class="st0" d="M325.9,1051.9l13,7.5v15l-13,7.5l-13-7.5v-15L325.9,1051.9z"/>
	<path id="Idukki" class="st0" d="M351.9,1052.3l13,7.5v15l-13,7.5l-13-7.5v-15L351.9,1052.3z"/>
	<path id="Ernakulam" class="st0" d="M286.9,1074.4l13,7.5v15l-13,7.5l-13-7.5v-15L286.9,1074.4z"/>
	<path id="Kottayam" class="st0" d="M312.9,1074.4l13,7.5v15l-13,7.5l-13-7.5v-15L312.9,1074.4z"/>
	<path id="Pathanamthitta" class="st0" d="M338.4,1074.5l13,7.5v15l-13,7.5l-13-7.5v-15L338.4,1074.5z"/>
	<path id="Thiruvananthapuram" class="st0" d="M339.3,1118.8l13,7.5v15l-13,7.5l-13-7.5v-15L339.3,1118.8z"/>
	<path id="Attingal" class="st0" d="M313.4,1118.2l13,7.5v15l-13,7.5l-13-7.5v-15L313.4,1118.2z"/>
	<path id="Kollam" class="st0" d="M351.9,1096.6l13,7.5v15l-13,7.5l-13-7.5v-15L351.9,1096.6z"/>
	<path id="Mavelikara" class="st0" d="M325.8,1096.5l13,7.5v15l-13,7.5l-13-7.5v-15L325.8,1096.5z"/>
	<path id="Alappuzha" class="st0" d="M300.1,1096.4l13,7.5v15l-13,7.5l-13-7.5v-15L300.1,1096.4z"/>
</g>
<path id="Lakshadweep" class="st0" d="M168.3,980.3l13,7.5v15l-13,7.5l-13-7.5v-15L168.3,980.3z"/>
<path id="Puducherry" class="st0" d="M618,945.9l13,7.5v15l-13,7.5l-13-7.5v-15L618,945.9z"/>
<path id="Andaman_And_Nicobar_Islands" class="st0" d="M909.5,762.6l13,7.5v15l-13,7.5l-13-7.5v-15L909.5,762.6z"/>
<path id="Sikkim" class="st0" d="M893.6,306.2l13,7.5v15l-13,7.5l-13-7.5v-15L893.6,306.2z"/>
<g id="Assam">
	<path id="Dhubri" class="st0" d="M962.3,395.7l13,7.5v15l-13,7.5l-13-7.5v-15L962.3,395.7z"/>
	<path id="Barpeta" class="st0" d="M988.3,395.7l13,7.5v15l-13,7.5l-13-7.5v-15L988.3,395.7z"/>
	<path id="Gauhati" class="st0" d="M1014.3,395.7l13,7.5v15l-13,7.5l-13-7.5v-15L1014.3,395.7z"/>
	<path id="Autonomous_District" class="st0" d="M1040.3,395.7l13,7.5v15l-13,7.5l-13-7.5v-15L1040.3,395.7z"/>
	<path id="Silchar" class="st0" d="M1053.3,418.3l13,7.5v15l-13,7.5l-13-7.5v-15L1053.3,418.3z"/>
	<path id="Karimganj" class="st0" d="M1040.3,440.8l13,7.5v15l-13,7.5l-13-7.5v-15L1040.3,440.8z"/>
	<path id="Kokrajhar" class="st0" d="M975.3,373.2l13,7.5v15l-13,7.5l-13-7.5v-15L975.3,373.2z"/>
	<path id="Mangaldoi" class="st0" d="M1001.3,373.2l13,7.5v15l-13,7.5l-13-7.5v-15L1001.3,373.2z"/>
	<path id="Nowgong" class="st0" d="M1027.3,373.2l13,7.5v15l-13,7.5l-13-7.5v-15L1027.3,373.2z"/>
	<path id="Kaliabor" class="st0" d="M1053.3,373.2l13,7.5v15l-13,7.5l-13-7.5v-15L1053.3,373.2z"/>
	<path id="Tezpur" class="st0" d="M1040.3,350.7l13,7.5v15l-13,7.5l-13-7.5v-15L1040.3,350.7z"/>
	<path id="Jorhat" class="st0" d="M1066.3,350.7l13,7.5v15l-13,7.5l-13-7.5v-15L1066.3,350.7z"/>
	<path id="Lakhimpur" class="st0" d="M1053.3,328.2l13,7.5v15l-13,7.5l-13-7.5v-15L1053.3,328.2z"/>
	<path id="Dibrugarh" class="st0" d="M1079.3,328.2l13,7.5v15l-13,7.5l-13-7.5v-15L1079.3,328.2z"/>
</g>
<g id="Meghalaya">
	<path id="Shillong" class="st0" d="M998.4,443.8l13,7.5v15l-13,7.5l-13-7.5v-15L998.4,443.8z"/>
	<path id="Tura" class="st0" d="M972.4,443.8l13,7.5v15l-13,7.5l-13-7.5v-15L972.4,443.8z"/>
</g>
<g id="Tripura">
	<path id="Tripura_East" class="st0" d="M1024.4,484.8l13,7.5v15l-13,7.5l-13-7.5v-15L1024.4,484.8z"/>
	<path id="Tripura_West" class="st0" d="M1011.4,507.3l13,7.5v15l-13,7.5l-13-7.5v-15L1011.4,507.3z"/>
</g>
<path id="Mizoram" class="st0" d="M1077.8,478.2l13,7.5v15l-13,7.5l-13-7.5v-15L1077.8,478.2z"/>
<g id="Manipur">
	<path id="Outer_Manipur" class="st0" d="M1100.5,426.8l13,7.5v15l-13,7.5l-13-7.5v-15L1100.5,426.8z"/>
	<path id="Inner_Manipur" class="st0" d="M1126.5,426.8l13,7.5v15l-13,7.5l-13-7.5v-15L1126.5,426.8z"/>
</g>
<path id="Nagaland" class="st0" d="M1114.1,369.6l13,7.5v15l-13,7.5l-13-7.5v-15L1114.1,369.6z"/>
<g id="Arunachal_Pradesh">
	<path id="Arunachal_West" class="st0" d="M1055.5,279.9l13,7.5v15l-13,7.5l-13-7.5v-15L1055.5,279.9z"/>
	<path id="Arunachal_East" class="st0" d="M1081.5,279.9l13,7.5v15l-13,7.5l-13-7.5v-15L1081.5,279.9z"/>
</g>
<g id="Goa">
	<path id="South_Goa" class="st0" d="M188.4,819.6l13,7.5v15l-13,7.5l-13-7.5v-15L188.4,819.6z"/>
	<path id="North_Goa" class="st0" d="M214.4,819.6l13,7.5v15l-13,7.5l-13-7.5v-15L214.4,819.6z"/>
</g>
<g id="Tamil_Nadu">
	<path id="Arakkonam" class="st0" d="M416.9,942.4l13,7.5v15l-13,7.5l-13-7.5v-15L416.9,942.4z"/>
	<path id="Sriperumbudur" class="st0" d="M442.9,942.4l13,7.5v15l-13,7.5l-13-7.5v-15L442.9,942.4z"/>
	<path id="Thiruvallur" class="st0" d="M468.9,942.4l13,7.5v15l-13,7.5l-13-7.5v-15L468.9,942.4z"/>
	<path id="Chennai_North" class="st0" d="M494.9,942.4l13,7.5v15l-13,7.5l-13-7.5v-15L494.9,942.4z"/>
	<path id="Chennai_Central" class="st0" d="M520.9,942.4l13,7.5v15l-13,7.5l-13-7.5v-15L520.9,942.4z"/>
	<path id="Chennai_South" class="st0" d="M546.9,942.4l13,7.5v15l-13,7.5l-13-7.5v-15L546.9,942.4z"/>
	<path id="Krishnagiri" class="st0" d="M403.9,964.9l13,7.5v15l-13,7.5l-13-7.5v-15L403.9,964.9z"/>
	<path id="Vellore" class="st0" d="M429.9,964.9l13,7.5v15l-13,7.5l-13-7.5v-15L429.9,964.9z"/>
	<path id="Tiruvannamalai" class="st0" d="M455.9,964.9l13,7.5v15l-13,7.5l-13-7.5v-15L455.9,964.9z"/>
	<path id="Villupuram" class="st0" d="M481.9,964.9l13,7.5v15l-13,7.5l-13-7.5v-15L481.9,964.9z"/>
	<path id="Arani" class="st0" d="M507.9,964.9l13,7.5v15l-13,7.5l-13-7.5v-15L507.9,964.9z"/>
	<path id="Kancheepuram" class="st0" d="M533.9,964.9l13,7.5v15l-13,7.5l-13-7.5v-15L533.9,964.9z"/>
	<path id="Dharmapuri" class="st0" d="M390.9,987.4l13,7.5v15l-13,7.5l-13-7.5v-15L390.9,987.4z"/>
	<path id="Salem" class="st0" d="M416.9,987.4l13,7.5v15l-13,7.5l-13-7.5v-15L416.9,987.4z"/>
	<path id="Kallakurichi" class="st0" d="M442.9,987.4l13,7.5v15l-13,7.5l-13-7.5v-15L442.9,987.4z"/>
	<path id="Cuddalore" class="st0" d="M468.9,987.4l13,7.5v15l-13,7.5l-13-7.5v-15L468.9,987.4z"/>
	<path id="Chidambaram" class="st0" d="M494.9,987.4l13,7.5v15l-13,7.5l-13-7.5v-15L494.9,987.4z"/>
	<path id="Mayiladuturai" class="st0" d="M520.9,987.4l13,7.5v15l-13,7.5l-13-7.5v-15L520.9,987.4z"/>
	<path id="Nilgiris" class="st0" d="M403.9,1009.9l13,7.5v15l-13,7.5l-13-7.5v-15L403.9,1009.9z"/>
	<path id="Tiruppur" class="st0" d="M429.9,1009.9l13,7.5v15l-13,7.5l-13-7.5v-15L429.9,1009.9z"/>
	<path id="Namakkal" class="st0" d="M455.9,1009.9l13,7.5v15l-13,7.5l-13-7.5v-15L455.9,1009.9z"/>
	<path id="Perambalur" class="st0" d="M481.9,1009.9l13,7.5v15l-13,7.5l-13-7.5v-15L481.9,1009.9z"/>
	<path id="Nagapattinam" class="st0" d="M507.9,1009.9l13,7.5v15l-13,7.5l-13-7.5v-15L507.9,1009.9z"/>
	<path id="Coimbatore" class="st0" d="M390.9,1032.5l13,7.5v15l-13,7.5l-13-7.5v-15L390.9,1032.5z"/>
	<path id="Erode" class="st0" d="M416.9,1032.5l13,7.5v15l-13,7.5l-13-7.5v-15L416.9,1032.5z"/>
	<path id="Karur" class="st0" d="M442.9,1032.5l13,7.5v15l-13,7.5l-13-7.5v-15L442.9,1032.5z"/>
	<path id="Tiruchirappalli" class="st0" d="M468.9,1032.5l13,7.5v15l-13,7.5l-13-7.5v-15L468.9,1032.5z"/>
	<path id="Thanjavur" class="st0" d="M494.9,1032.5l13,7.5v15l-13,7.5l-13-7.5v-15L494.9,1032.5z"/>
	<path id="Theni" class="st0" d="M391.1,1078.1l13,7.5v15l-13,7.5l-13-7.5v-15L391.1,1078.1z"/>
	<path id="Tenkasi" class="st0" d="M417.6,1077.4l13,7.5v15l-13,7.5l-13-7.5v-15L417.6,1077.4z"/>
	<path id="Virudhunagar" class="st0" d="M443.6,1077.4l13,7.5v15l-13,7.5l-13-7.5v-15L443.6,1077.4z"/>
	<path id="Ramanathapuram" class="st0" d="M469.6,1077.4l13,7.5v15l-13,7.5l-13-7.5v-15L469.6,1077.4z"/>
	<path id="Pollachi" class="st0" d="M403.6,1055.1l13,7.5v15l-13,7.5l-13-7.5v-15L403.6,1055.1z"/>
	<path id="Dindigui" class="st0" d="M429.9,1055l13,7.5v15l-13,7.5l-13-7.5v-15L429.9,1055z"/>
	<path id="Madurai" class="st0" d="M455.9,1055l13,7.5v15l-13,7.5l-13-7.5v-15L455.9,1055z"/>
	<path id="Sivaganga" class="st0" d="M481.9,1055l13,7.5v15l-13,7.5l-13-7.5v-15L481.9,1055z"/>
	<path id="Kanyakumari" class="st0" d="M404.6,1100.5l13,7.5v15l-13,7.5l-13-7.5v-15L404.6,1100.5z"/>
	<path id="Tirunelveli" class="st0" d="M430.6,1100.5l13,7.5v15l-13,7.5l-13-7.5v-15L430.6,1100.5z"/>
	<path id="Thoothukudi" class="st0" d="M456.6,1100.5l13,7.5v15l-13,7.5l-13-7.5v-15L456.6,1100.5z"/>
</g>
<g id="Jharkhand">
	<path id="Palamau" class="st0" d="M579.5,544.2l13,7.5v15l-13,7.5l-13-7.5v-15L579.5,544.2z"/>
	<path id="Chatra" class="st0" d="M605.5,544.2l13,7.5v15l-13,7.5l-13-7.5v-15L605.5,544.2z"/>
	<path id="Hazaribagh" class="st0" d="M631.5,544.2l13,7.5v15l-13,7.5l-13-7.5v-15L631.5,544.2z"/>
	<path id="Kodarma" class="st0" d="M657.5,544.2l13,7.5v15l-13,7.5l-13-7.5v-15L657.5,544.2z"/>
	<path id="Godda" class="st0" d="M683.5,544.2l13,7.5v15l-13,7.5l-13-7.5v-15L683.5,544.2z"/>
	<path id="Rajmahal" class="st0" d="M709.5,544.2l13,7.5v15l-13,7.5l-13-7.5v-15L709.5,544.2z"/>
	<path id="Lohardaga" class="st0" d="M592.5,566.7l13,7.5v15l-13,7.5l-13-7.5v-15L592.5,566.7z"/>
	<path id="Ranchi" class="st0" d="M618.5,566.7l13,7.5v15l-13,7.5l-13-7.5v-15L618.5,566.7z"/>
	<path id="Giridih" class="st0" d="M644.5,566.7l13,7.5v15l-13,7.5l-13-7.5v-15L644.5,566.7z"/>
	<path id="Dhanbad" class="st0" d="M670.5,566.7l13,7.5v15l-13,7.5l-13-7.5v-15L670.5,566.7z"/>
	<path id="Dumka" class="st0" d="M696.5,566.7l13,7.5v15l-13,7.5l-13-7.5v-15L696.5,566.7z"/>
	<path id="Khunti" class="st0" d="M631.4,589.5l13,7.5v15l-13,7.5l-13-7.5v-15L631.4,589.5z"/>
	<path id="Singhbhum" class="st0" d="M657.4,589.5l13,7.5v15l-13,7.5l-13-7.5v-15L657.4,589.5z"/>
	<path id="Jamshedpur" class="st0" d="M683.4,589.5l13,7.5v15l-13,7.5l-13-7.5v-15L683.4,589.5z"/>
</g>
</svg>
